<?xml version="1.0" encoding="UTF-8"?>
<svg width="1766px" height="443px" viewBox="0 0 1766 443" version="1.1" xmlns="http://www.w3.org/2000/svg" xmlns:xlink="http://www.w3.org/1999/xlink">
    <!-- Generator: Sketch 61.2 (89653) - https://sketch.com -->
    <title>nodebook</title>
    <desc>Created with Sketch.</desc>
    <g id="Page-1" stroke="none" stroke-width="1" fill="none" fill-rule="evenodd">
        <line x1="56.5" y1="46.5" x2="313.5" y2="405.5" id="Line-2" stroke="#000000" stroke-width="13" stroke-linecap="square"></line>
        <line x1="46.5" y1="46.5" x2="46.5" y2="405.5" id="Line" stroke="#000000" stroke-width="13" stroke-linecap="square"></line>
        <circle id="Oval" stroke="#000000" stroke-width="16" fill="#FFFFFF" cx="46.5" cy="396.5" r="38.5"></circle>
        <circle id="Oval" stroke="#000000" stroke-width="16" fill="#FFFFFF" cx="46.5" cy="46.5" r="38.5"></circle>
        <circle id="Oval" stroke="#000000" stroke-width="16" fill="#FFFFFF" cx="46.5" cy="221.5" r="38.5"></circle>
        <line x1="307.5" y1="46.5" x2="307.5" y2="405.5" id="Line" stroke="#000000" stroke-width="13" stroke-linecap="square"></line>
        <circle id="Oval" stroke="#000000" stroke-width="16" fill="#FFFFFF" cx="307.5" cy="396.5" r="38.5"></circle>
        <circle id="Oval" stroke="#000000" stroke-width="16" fill="#FFFFFF" cx="307.5" cy="46.5" r="38.5"></circle>
        <circle id="Oval" stroke="#000000" stroke-width="16" fill="#FFFFFF" cx="307.5" cy="221.5" r="38.5"></circle>
        <circle id="Oval" stroke="#000000" stroke-width="16" fill="#FFFFFF" cx="185.5" cy="226.5" r="38.5"></circle>
        <g id="odebook" transform="translate(408.000000, 60.000000)" fill="#000000" fill-rule="nonzero">
            <path d="M88.0102539,310.033203 C109.232585,310.033203 127.141927,302.975098 141.738281,288.858887 C156.238607,274.646647 163.48877,257.025391 163.48877,235.995117 C163.48877,215.156901 156.286621,197.583659 141.882324,183.275391 C127.28597,168.967122 109.520671,161.812988 88.5864258,161.812988 C67.7482096,161.812988 50.0789388,168.919108 35.5786133,183.131348 C21.0782878,197.343587 13.828125,214.580729 13.828125,234.842773 C13.828125,256.35319 20.9342448,274.214518 35.1464844,288.426758 C49.358724,302.831055 66.9799805,310.033203 88.0102539,310.033203 Z M88.5864258,281.080566 C76.0066732,281.080566 65.875651,276.951335 58.1933594,268.692871 C50.703125,260.530436 46.9580078,249.439128 46.9580078,235.418945 C46.9580078,222.359049 50.7991536,211.69987 58.4814453,203.441406 C66.163737,195.182943 76.1987305,191.053711 88.5864258,191.053711 C101.166178,191.053711 111.297201,195.182943 118.979492,203.441406 C126.565755,211.603841 130.358887,222.503092 130.358887,236.13916 C130.358887,249.775228 126.565755,260.674479 118.979492,268.836914 C111.393229,276.999349 101.262207,281.080566 88.5864258,281.080566 Z M257.836914,310.033203 C273.969727,310.033203 288.422038,303.791341 301.193848,291.307617 L301.193848,291.307617 L301.193848,306 L333.747559,306 L333.747559,62.7114258 L301.193848,62.7114258 L301.193848,181.979004 C288.22998,168.534993 273.537598,161.812988 257.116699,161.812988 C238.199056,161.812988 222.498372,168.871094 210.014648,182.987305 C197.434896,197.007487 191.14502,214.484701 191.14502,235.418945 C191.14502,256.833333 197.434896,274.694661 210.014648,289.00293 C222.69043,303.023112 238.631185,310.033203 257.836914,310.033203 Z M263.022461,281.080566 C251.787109,281.080566 242.472331,276.807292 235.078125,268.260742 C227.875977,259.810221 224.274902,248.862956 224.274902,235.418945 C224.274902,222.839193 227.972005,212.276042 235.366211,203.729492 C242.856445,195.278971 252.171224,191.053711 263.310547,191.053711 C275.12207,191.053711 284.724935,195.230957 292.119141,203.585449 C299.513346,212.131999 303.210449,222.983236 303.210449,236.13916 C303.210449,249.295085 299.513346,260.146322 292.119141,268.692871 C284.724935,276.951335 275.026042,281.080566 263.022461,281.080566 Z M437.458496,310.033203 C444.756673,310.033203 451.526693,309.264974 457.768555,307.728516 C464.010417,306.192057 469.82015,303.767334 475.197754,300.454346 C480.575358,297.141357 485.616862,292.916097 490.322266,287.778564 C495.027669,282.641032 499.493001,276.471191 503.718262,269.269043 L503.718262,269.269043 L476.350098,254.000488 C469.724121,264.371582 463.818359,271.477702 458.632812,275.318848 C453.351237,279.159993 446.677246,281.080566 438.61084,281.080566 C428.239746,281.080566 419.741211,277.719564 413.115234,270.997559 C406.489258,264.179525 402.744141,255.008789 401.879883,243.485352 L401.879883,243.485352 L502.421875,243.485352 L502.565918,235.851074 C502.565918,212.708171 496.612142,194.606771 484.70459,181.546875 C472.701009,168.390951 456.376139,161.812988 435.72998,161.812988 C415.275879,161.812988 398.85498,168.583008 386.467285,182.123047 C374.175618,195.855143 368.029785,213.8125 368.029785,235.995117 C368.029785,258.369792 374.367676,276.327148 387.043457,289.867188 C399.719238,303.311198 416.524251,310.033203 437.458496,310.033203 Z M469.147949,216.981445 L404.040527,216.981445 C405.096842,212.948242 406.633301,209.347168 408.649902,206.178223 C410.666504,203.009277 413.091227,200.296468 415.924072,198.039795 C418.756917,195.783122 421.901855,194.054606 425.358887,192.854248 C428.815918,191.65389 432.513021,191.053711 436.450195,191.053711 C453.735352,191.053711 464.634603,199.696289 469.147949,216.981445 L469.147949,216.981445 Z M613.76709,310.033203 C632.972819,310.033203 648.86556,303.023112 661.445312,289.00293 C674.121094,274.886719 680.458984,257.025391 680.458984,235.418945 C680.458984,214.484701 674.169108,197.007487 661.589355,182.987305 C649.009603,168.871094 633.260905,161.812988 614.343262,161.812988 C597.922363,161.812988 583.22998,168.534993 570.266113,181.979004 L570.266113,181.979004 L570.266113,62.7114258 L537.856445,62.7114258 L537.856445,306 L570.266113,306 L570.266113,291.307617 C583.037923,303.791341 597.538249,310.033203 613.76709,310.033203 Z M608.149414,281.080566 C596.241862,281.080566 586.638997,276.90332 579.34082,268.548828 C572.042643,260.386393 568.393555,249.487142 568.393555,235.851074 C568.393555,222.599121 572.090658,211.843913 579.484863,203.585449 C586.975098,195.230957 596.673991,191.053711 608.581543,191.053711 C619.720866,191.053711 628.98763,195.375 636.381836,204.017578 C643.680013,212.468099 647.329102,223.415365 647.329102,236.859375 C647.329102,249.535156 643.583984,260.098307 636.09375,268.548828 C628.699544,276.90332 619.384766,281.080566 608.149414,281.080566 Z M782.297363,310.033203 C803.519694,310.033203 821.429036,302.975098 836.025391,288.858887 C850.525716,274.646647 857.775879,257.025391 857.775879,235.995117 C857.775879,215.156901 850.57373,197.583659 836.169434,183.275391 C821.573079,168.967122 803.80778,161.812988 782.873535,161.812988 C762.035319,161.812988 744.366048,168.919108 729.865723,183.131348 C715.365397,197.343587 708.115234,214.580729 708.115234,234.842773 C708.115234,256.35319 715.221354,274.214518 729.433594,288.426758 C743.645833,302.831055 761.26709,310.033203 782.297363,310.033203 Z M782.873535,281.080566 C770.293783,281.080566 760.16276,276.951335 752.480469,268.692871 C744.990234,260.530436 741.245117,249.439128 741.245117,235.418945 C741.245117,222.359049 745.086263,211.69987 752.768555,203.441406 C760.450846,195.182943 770.48584,191.053711 782.873535,191.053711 C795.453288,191.053711 805.58431,195.182943 813.266602,203.441406 C820.852865,211.603841 824.645996,222.503092 824.645996,236.13916 C824.645996,249.775228 820.852865,260.674479 813.266602,268.836914 C805.680339,276.999349 795.549316,281.080566 782.873535,281.080566 Z M959.614258,310.033203 C980.836589,310.033203 998.745931,302.975098 1013.34229,288.858887 C1027.84261,274.646647 1035.09277,257.025391 1035.09277,235.995117 C1035.09277,215.156901 1027.89062,197.583659 1013.48633,183.275391 C998.889974,168.967122 981.124674,161.812988 960.19043,161.812988 C939.352214,161.812988 921.682943,168.919108 907.182617,183.131348 C892.682292,197.343587 885.432129,214.580729 885.432129,234.842773 C885.432129,256.35319 892.538249,274.214518 906.750488,288.426758 C920.962728,302.831055 938.583984,310.033203 959.614258,310.033203 Z M960.19043,281.080566 C947.610677,281.080566 937.479655,276.951335 929.797363,268.692871 C922.307129,260.530436 918.562012,249.439128 918.562012,235.418945 C918.562012,222.359049 922.403158,211.69987 930.085449,203.441406 C937.767741,195.182943 947.802734,191.053711 960.19043,191.053711 C972.770182,191.053711 982.901204,195.182943 990.583496,203.441406 C998.169759,211.603841 1001.96289,222.503092 1001.96289,236.13916 C1001.96289,249.775228 998.169759,260.674479 990.583496,268.836914 C982.997233,276.999349 972.866211,281.080566 960.19043,281.080566 Z M1101.78467,306 L1101.78467,251.983887 L1106.97021,246.79834 L1153.35205,306 L1195.4126,306 L1130.01709,224.615723 L1190.94727,165.702148 L1147.44629,165.702148 L1101.78467,211.075684 L1101.78467,62.7114258 L1069.375,62.7114258 L1069.375,306 L1101.78467,306 Z"></path>
        </g>
    </g>
</svg>